<svg xmlns="http://www.w3.org/2000/svg" xmlns:xlink="http://www.w3.org/1999/xlink" width="1366" zoomAndPan="magnify" viewBox="0 0 1024.5 576" height="768" preserveAspectRatio="xMidYMid meet" version="1.0"><defs><g/></defs><g fill="#ffffff" fill-opacity="1"><g transform="translate(166.464035, 251.931259)"><g><path d="M 59.1875 -43.59375 L 56.09375 -43.59375 C 55.945312 -45.75 55.597656 -47.554688 55.046875 -49.015625 C 54.492188 -50.472656 53.703125 -51.613281 52.671875 -52.4375 C 51.640625 -53.269531 50.34375 -53.859375 48.78125 -54.203125 C 47.226562 -54.554688 45.375 -54.734375 43.21875 -54.734375 C 41.363281 -54.734375 39.867188 -54.695312 38.734375 -54.625 C 37.609375 -54.550781 36.742188 -54.410156 36.140625 -54.203125 C 35.535156 -54.003906 35.144531 -53.765625 34.96875 -53.484375 C 34.800781 -53.210938 34.71875 -52.851562 34.71875 -52.40625 L 34.71875 -12.125 C 34.71875 -10.519531 34.828125 -9.140625 35.046875 -7.984375 C 35.273438 -6.828125 35.726562 -5.882812 36.40625 -5.15625 C 37.082031 -4.425781 38.0625 -3.875 39.34375 -3.5 C 40.625 -3.125 42.316406 -2.910156 44.421875 -2.859375 L 44.421875 0 L 15.96875 0 L 15.96875 -2.859375 C 18.070312 -2.910156 19.773438 -3.125 21.078125 -3.5 C 22.390625 -3.875 23.382812 -4.425781 24.0625 -5.15625 C 24.738281 -5.882812 25.1875 -6.828125 25.40625 -7.984375 C 25.632812 -9.140625 25.75 -10.519531 25.75 -12.125 L 25.75 -52.40625 C 25.75 -52.851562 25.660156 -53.210938 25.484375 -53.484375 C 25.304688 -53.765625 24.953125 -54.003906 24.421875 -54.203125 C 23.898438 -54.410156 23.160156 -54.550781 22.203125 -54.625 C 21.253906 -54.695312 19.976562 -54.734375 18.375 -54.734375 C 16.414062 -54.734375 14.59375 -54.65625 12.90625 -54.5 C 11.226562 -54.351562 9.773438 -53.914062 8.546875 -53.1875 C 7.316406 -52.46875 6.320312 -51.351562 5.5625 -49.84375 C 4.8125 -48.34375 4.414062 -46.257812 4.375 -43.59375 L 1.578125 -43.59375 L 1.578125 -57.984375 L 58.4375 -57.984375 Z M 59.1875 -43.59375 "/></g></g></g><g fill="#ffffff" fill-opacity="1"><g transform="translate(247.250412, 251.931259)"><g><path d="M 19.578125 -14.234375 C 19.578125 -11.722656 19.675781 -9.738281 19.875 -8.28125 C 20.070312 -6.820312 20.457031 -5.691406 21.03125 -4.890625 C 21.613281 -4.085938 22.445312 -3.5625 23.53125 -3.3125 C 24.613281 -3.0625 26.03125 -2.910156 27.78125 -2.859375 L 27.78125 0 L 3.390625 0 L 3.390625 -2.859375 C 5.148438 -2.910156 6.566406 -3.070312 7.640625 -3.34375 C 8.722656 -3.625 9.5625 -4.140625 10.15625 -4.890625 C 10.757812 -5.648438 11.160156 -6.71875 11.359375 -8.09375 C 11.566406 -9.476562 11.671875 -11.347656 11.671875 -13.703125 L 11.671875 -44.28125 C 11.671875 -46.382812 11.582031 -48.125 11.40625 -49.5 C 11.226562 -50.882812 10.875 -51.976562 10.34375 -52.78125 C 9.820312 -53.582031 9.054688 -54.144531 8.046875 -54.46875 C 7.046875 -54.800781 5.742188 -55.019531 4.140625 -55.125 L 4.140625 -57.984375 L 27.03125 -57.984375 L 27.03125 -55.125 C 25.425781 -55.070312 24.132812 -54.867188 23.15625 -54.515625 C 22.175781 -54.160156 21.421875 -53.566406 20.890625 -52.734375 C 20.367188 -51.910156 20.019531 -50.769531 19.84375 -49.3125 C 19.664062 -47.863281 19.578125 -46.007812 19.578125 -43.75 Z M 19.578125 -14.234375 "/></g></g></g><g fill="#ffffff" fill-opacity="1"><g transform="translate(298.825094, 251.931259)"><g><path d="M 41.40625 -13.484375 L 60.984375 -57.984375 L 77.859375 -57.984375 L 77.859375 -55.125 C 76.253906 -55.070312 74.960938 -54.867188 73.984375 -54.515625 C 73.003906 -54.160156 72.25 -53.566406 71.71875 -52.734375 C 71.1875 -51.910156 70.832031 -50.769531 70.65625 -49.3125 C 70.488281 -47.863281 70.40625 -46.007812 70.40625 -43.75 L 70.40625 -14.234375 C 70.40625 -11.722656 70.503906 -9.738281 70.703125 -8.28125 C 70.898438 -6.820312 71.285156 -5.691406 71.859375 -4.890625 C 72.441406 -4.085938 73.269531 -3.5625 74.34375 -3.3125 C 75.425781 -3.0625 76.847656 -2.910156 78.609375 -2.859375 L 78.609375 0 L 54.21875 0 L 54.21875 -2.859375 C 55.96875 -2.910156 57.382812 -3.070312 58.46875 -3.34375 C 59.550781 -3.625 60.390625 -4.140625 60.984375 -4.890625 C 61.585938 -5.648438 61.988281 -6.71875 62.1875 -8.09375 C 62.394531 -9.476562 62.5 -11.347656 62.5 -13.703125 L 62.5 -48.640625 L 61.75 -48.640625 L 39.75 0.75 L 38.09375 0.75 L 16.484375 -48.640625 L 16.1875 -48.640625 L 16.1875 -14.234375 C 16.1875 -11.722656 16.285156 -9.738281 16.484375 -8.28125 C 16.691406 -6.820312 17.082031 -5.691406 17.65625 -4.890625 C 18.226562 -4.085938 19.054688 -3.5625 20.140625 -3.3125 C 21.222656 -3.0625 22.640625 -2.910156 24.390625 -2.859375 L 24.390625 0 L 3.390625 0 L 3.390625 -2.859375 C 5.148438 -2.910156 6.566406 -3.070312 7.640625 -3.34375 C 8.722656 -3.625 9.5625 -4.140625 10.15625 -4.890625 C 10.757812 -5.648438 11.160156 -6.71875 11.359375 -8.09375 C 11.566406 -9.476562 11.671875 -11.347656 11.671875 -13.703125 L 11.671875 -44.28125 C 11.671875 -46.382812 11.582031 -48.125 11.40625 -49.5 C 11.226562 -50.882812 10.875 -51.976562 10.34375 -52.78125 C 9.820312 -53.582031 9.054688 -54.144531 8.046875 -54.46875 C 7.046875 -54.800781 5.742188 -55.019531 4.140625 -55.125 L 4.140625 -57.984375 L 22.140625 -57.984375 L 41.109375 -13.484375 Z M 41.40625 -13.484375 "/></g></g></g><g fill="#ffffff" fill-opacity="1"><g transform="translate(401.219098, 251.931259)"><g><path d="M 19.578125 -31.84375 C 22.285156 -31.84375 24.554688 -32.003906 26.390625 -32.328125 C 28.222656 -32.660156 29.675781 -33.175781 30.75 -33.875 C 31.832031 -34.582031 32.613281 -35.488281 33.09375 -36.59375 C 33.570312 -37.695312 33.8125 -39.003906 33.8125 -40.515625 L 36.4375 -40.515625 L 36.4375 -19.953125 L 33.8125 -19.953125 C 33.8125 -21.460938 33.597656 -22.769531 33.171875 -23.875 C 32.742188 -24.976562 31.988281 -25.890625 30.90625 -26.609375 C 29.832031 -27.335938 28.378906 -27.890625 26.546875 -28.265625 C 24.710938 -28.648438 22.390625 -28.84375 19.578125 -28.84375 L 19.578125 -11.828125 C 19.578125 -10.171875 19.773438 -8.800781 20.171875 -7.71875 C 20.578125 -6.632812 21.269531 -5.753906 22.25 -5.078125 C 23.226562 -4.398438 24.519531 -3.921875 26.125 -3.640625 C 27.726562 -3.367188 29.710938 -3.234375 32.078125 -3.234375 C 34.734375 -3.234375 36.988281 -3.421875 38.84375 -3.796875 C 40.707031 -4.179688 42.265625 -4.820312 43.515625 -5.71875 C 44.773438 -6.625 45.78125 -7.816406 46.53125 -9.296875 C 47.28125 -10.773438 47.910156 -12.617188 48.421875 -14.828125 L 51.28125 -14.828125 L 50.140625 0 L 3.390625 0 L 3.390625 -2.859375 C 5.148438 -2.910156 6.566406 -3.0625 7.640625 -3.3125 C 8.722656 -3.5625 9.5625 -3.988281 10.15625 -4.59375 C 10.757812 -5.195312 11.160156 -6.050781 11.359375 -7.15625 C 11.566406 -8.257812 11.671875 -9.6875 11.671875 -11.4375 L 11.671875 -46.53125 C 11.671875 -48.289062 11.582031 -49.707031 11.40625 -50.78125 C 11.226562 -51.863281 10.875 -52.71875 10.34375 -53.34375 C 9.820312 -53.96875 9.054688 -54.394531 8.046875 -54.625 C 7.046875 -54.851562 5.742188 -55.019531 4.140625 -55.125 L 4.140625 -57.984375 L 47.65625 -57.984375 L 48.34375 -44.71875 L 45.703125 -44.71875 C 45.398438 -46.726562 44.910156 -48.375 44.234375 -49.65625 C 43.554688 -50.9375 42.628906 -51.953125 41.453125 -52.703125 C 40.273438 -53.460938 38.78125 -53.988281 36.96875 -54.28125 C 35.164062 -54.582031 32.984375 -54.734375 30.421875 -54.734375 L 20.859375 -54.734375 C 20.003906 -54.734375 19.578125 -54.304688 19.578125 -53.453125 Z M 19.578125 -31.84375 "/></g></g></g><g fill="#ffffff" fill-opacity="1"><g transform="translate(476.20832, 251.931259)"><g/></g></g><g fill="#ffffff" fill-opacity="1"><g transform="translate(518.146144, 251.931259)"><g><path d="M 4.375 -17.6875 L 7.15625 -17.6875 C 7.507812 -15.4375 8.171875 -13.40625 9.140625 -11.59375 C 10.117188 -9.789062 11.347656 -8.257812 12.828125 -7 C 14.316406 -5.75 16.023438 -4.785156 17.953125 -4.109375 C 19.890625 -3.429688 21.988281 -3.09375 24.25 -3.09375 C 27.957031 -3.09375 30.890625 -3.96875 33.046875 -5.71875 C 35.210938 -7.476562 36.296875 -9.863281 36.296875 -12.875 C 36.296875 -14.132812 36.082031 -15.289062 35.65625 -16.34375 C 35.226562 -17.394531 34.507812 -18.410156 33.5 -19.390625 C 32.5 -20.367188 31.15625 -21.332031 29.46875 -22.28125 C 27.789062 -23.238281 25.671875 -24.269531 23.109375 -25.375 C 20.003906 -26.726562 17.394531 -28.03125 15.28125 -29.28125 C 13.175781 -30.539062 11.492188 -31.847656 10.234375 -33.203125 C 8.984375 -34.554688 8.09375 -36 7.5625 -37.53125 C 7.039062 -39.0625 6.78125 -40.804688 6.78125 -42.765625 C 6.78125 -45.078125 7.191406 -47.210938 8.015625 -49.171875 C 8.847656 -51.128906 10.015625 -52.820312 11.515625 -54.25 C 13.023438 -55.675781 14.804688 -56.78125 16.859375 -57.5625 C 18.921875 -58.34375 21.179688 -58.734375 23.640625 -58.734375 C 25.847656 -58.734375 27.90625 -58.378906 29.8125 -57.671875 C 31.71875 -56.972656 33.648438 -55.84375 35.609375 -54.28125 L 37.578125 -57.671875 L 39.3125 -57.671875 L 40.140625 -42.6875 L 37.34375 -42.6875 C 36.144531 -46.8125 34.398438 -49.875 32.109375 -51.875 C 29.828125 -53.882812 27.082031 -54.890625 23.875 -54.890625 C 20.8125 -54.890625 18.375 -54.132812 16.5625 -52.625 C 14.757812 -51.125 13.859375 -49.09375 13.859375 -46.53125 C 13.859375 -45.320312 14.054688 -44.226562 14.453125 -43.25 C 14.859375 -42.28125 15.507812 -41.351562 16.40625 -40.46875 C 17.3125 -39.59375 18.492188 -38.710938 19.953125 -37.828125 C 21.410156 -36.953125 23.21875 -36.039062 25.375 -35.09375 C 29.09375 -33.4375 32.179688 -31.890625 34.640625 -30.453125 C 37.097656 -29.023438 39.050781 -27.59375 40.5 -26.15625 C 41.957031 -24.726562 42.988281 -23.222656 43.59375 -21.640625 C 44.195312 -20.066406 44.5 -18.300781 44.5 -16.34375 C 44.5 -13.832031 43.992188 -11.519531 42.984375 -9.40625 C 41.984375 -7.300781 40.578125 -5.492188 38.765625 -3.984375 C 36.960938 -2.484375 34.804688 -1.316406 32.296875 -0.484375 C 29.785156 0.335938 27.023438 0.75 24.015625 0.75 C 21.160156 0.75 18.585938 0.347656 16.296875 -0.453125 C 14.015625 -1.253906 11.695312 -2.609375 9.34375 -4.515625 L 7.234375 -0.828125 L 5.5 -0.828125 Z M 4.375 -17.6875 "/></g></g></g><g fill="#ffffff" fill-opacity="1"><g transform="translate(587.037035, 251.931259)"><g><path d="M 59.1875 -43.59375 L 56.09375 -43.59375 C 55.945312 -45.75 55.597656 -47.554688 55.046875 -49.015625 C 54.492188 -50.472656 53.703125 -51.613281 52.671875 -52.4375 C 51.640625 -53.269531 50.34375 -53.859375 48.78125 -54.203125 C 47.226562 -54.554688 45.375 -54.734375 43.21875 -54.734375 C 41.363281 -54.734375 39.867188 -54.695312 38.734375 -54.625 C 37.609375 -54.550781 36.742188 -54.410156 36.140625 -54.203125 C 35.535156 -54.003906 35.144531 -53.765625 34.96875 -53.484375 C 34.800781 -53.210938 34.71875 -52.851562 34.71875 -52.40625 L 34.71875 -12.125 C 34.71875 -10.519531 34.828125 -9.140625 35.046875 -7.984375 C 35.273438 -6.828125 35.726562 -5.882812 36.40625 -5.15625 C 37.082031 -4.425781 38.0625 -3.875 39.34375 -3.5 C 40.625 -3.125 42.316406 -2.910156 44.421875 -2.859375 L 44.421875 0 L 15.96875 0 L 15.96875 -2.859375 C 18.070312 -2.910156 19.773438 -3.125 21.078125 -3.5 C 22.390625 -3.875 23.382812 -4.425781 24.0625 -5.15625 C 24.738281 -5.882812 25.1875 -6.828125 25.40625 -7.984375 C 25.632812 -9.140625 25.75 -10.519531 25.75 -12.125 L 25.75 -52.40625 C 25.75 -52.851562 25.660156 -53.210938 25.484375 -53.484375 C 25.304688 -53.765625 24.953125 -54.003906 24.421875 -54.203125 C 23.898438 -54.410156 23.160156 -54.550781 22.203125 -54.625 C 21.253906 -54.695312 19.976562 -54.734375 18.375 -54.734375 C 16.414062 -54.734375 14.59375 -54.65625 12.90625 -54.5 C 11.226562 -54.351562 9.773438 -53.914062 8.546875 -53.1875 C 7.316406 -52.46875 6.320312 -51.351562 5.5625 -49.84375 C 4.8125 -48.34375 4.414062 -46.257812 4.375 -43.59375 L 1.578125 -43.59375 L 1.578125 -57.984375 L 58.4375 -57.984375 Z M 59.1875 -43.59375 "/></g></g></g><g fill="#ffffff" fill-opacity="1"><g transform="translate(667.823421, 251.931259)"><g><path d="M 35.609375 -58.734375 C 40.023438 -58.734375 44.140625 -57.953125 47.953125 -56.390625 C 51.773438 -54.835938 55.09375 -52.707031 57.90625 -50 C 60.71875 -47.289062 62.925781 -44.101562 64.53125 -40.4375 C 66.132812 -36.769531 66.9375 -32.800781 66.9375 -28.53125 C 66.9375 -24.46875 66.117188 -20.65625 64.484375 -17.09375 C 62.859375 -13.53125 60.640625 -10.429688 57.828125 -7.796875 C 55.015625 -5.160156 51.703125 -3.078125 47.890625 -1.546875 C 44.078125 -0.015625 39.984375 0.75 35.609375 0.75 C 31.242188 0.75 27.15625 -0.015625 23.34375 -1.546875 C 19.53125 -3.078125 16.21875 -5.160156 13.40625 -7.796875 C 10.59375 -10.429688 8.367188 -13.53125 6.734375 -17.09375 C 5.109375 -20.65625 4.296875 -24.46875 4.296875 -28.53125 C 4.296875 -32.800781 5.097656 -36.769531 6.703125 -40.4375 C 8.304688 -44.101562 10.515625 -47.289062 13.328125 -50 C 16.140625 -52.707031 19.453125 -54.835938 23.265625 -56.390625 C 27.078125 -57.953125 31.191406 -58.734375 35.609375 -58.734375 Z M 35.609375 -3.390625 C 38.921875 -3.390625 41.894531 -3.96875 44.53125 -5.125 C 47.164062 -6.28125 49.425781 -7.9375 51.3125 -10.09375 C 53.195312 -12.25 54.640625 -14.867188 55.640625 -17.953125 C 56.648438 -21.046875 57.15625 -24.5 57.15625 -28.3125 C 57.15625 -32.320312 56.648438 -35.945312 55.640625 -39.1875 C 54.640625 -42.425781 53.207031 -45.1875 51.34375 -47.46875 C 49.488281 -49.757812 47.226562 -51.519531 44.5625 -52.75 C 41.90625 -53.976562 38.921875 -54.59375 35.609375 -54.59375 C 32.296875 -54.59375 29.3125 -53.976562 26.65625 -52.75 C 24 -51.519531 21.738281 -49.757812 19.875 -47.46875 C 18.019531 -45.1875 16.585938 -42.425781 15.578125 -39.1875 C 14.578125 -35.945312 14.078125 -32.320312 14.078125 -28.3125 C 14.078125 -24.5 14.578125 -21.046875 15.578125 -17.953125 C 16.585938 -14.867188 18.019531 -12.25 19.875 -10.09375 C 21.738281 -7.9375 24 -6.28125 26.65625 -5.125 C 29.3125 -3.96875 32.296875 -3.390625 35.609375 -3.390625 Z M 35.609375 -3.390625 "/></g></g></g><g fill="#ffffff" fill-opacity="1"><g transform="translate(759.375944, 251.931259)"><g><path d="M 49.546875 -43.453125 C 49.546875 -40.785156 49.117188 -38.394531 48.265625 -36.28125 C 47.410156 -34.175781 46.066406 -32.394531 44.234375 -30.9375 C 42.398438 -29.488281 40.015625 -28.363281 37.078125 -27.5625 C 34.140625 -26.757812 30.566406 -26.359375 26.359375 -26.359375 L 19.578125 -26.359375 L 19.578125 -11.828125 C 19.578125 -9.960938 19.6875 -8.441406 19.90625 -7.265625 C 20.132812 -6.085938 20.613281 -5.171875 21.34375 -4.515625 C 22.070312 -3.859375 23.125 -3.414062 24.5 -3.1875 C 25.882812 -2.96875 27.707031 -2.859375 29.96875 -2.859375 L 29.96875 0 L 3.390625 0 L 3.390625 -2.859375 C 5.148438 -2.910156 6.566406 -3.0625 7.640625 -3.3125 C 8.722656 -3.5625 9.5625 -3.988281 10.15625 -4.59375 C 10.757812 -5.195312 11.160156 -6.050781 11.359375 -7.15625 C 11.566406 -8.257812 11.671875 -9.6875 11.671875 -11.4375 L 11.671875 -46.53125 C 11.671875 -48.289062 11.582031 -49.707031 11.40625 -50.78125 C 11.226562 -51.863281 10.875 -52.71875 10.34375 -53.34375 C 9.820312 -53.96875 9.054688 -54.394531 8.046875 -54.625 C 7.046875 -54.851562 5.742188 -55.019531 4.140625 -55.125 L 4.140625 -57.984375 L 27.78125 -57.984375 C 34.707031 -57.984375 40.066406 -56.703125 43.859375 -54.140625 C 47.648438 -51.578125 49.546875 -48.015625 49.546875 -43.453125 Z M 19.578125 -30.125 L 24.921875 -30.125 C 29.941406 -30.125 33.664062 -31.085938 36.09375 -33.015625 C 38.53125 -34.953125 39.75 -38.128906 39.75 -42.546875 C 39.75 -46.804688 38.78125 -49.851562 36.84375 -51.6875 C 34.914062 -53.519531 31.894531 -54.4375 27.78125 -54.4375 L 20.859375 -54.4375 C 20.003906 -54.4375 19.578125 -54.007812 19.578125 -53.15625 Z M 19.578125 -30.125 "/></g></g></g><g fill="#ffffff" fill-opacity="1"><g transform="translate(831.428912, 251.931259)"><g><path d="M 4.375 -17.6875 L 7.15625 -17.6875 C 7.507812 -15.4375 8.171875 -13.40625 9.140625 -11.59375 C 10.117188 -9.789062 11.347656 -8.257812 12.828125 -7 C 14.316406 -5.75 16.023438 -4.785156 17.953125 -4.109375 C 19.890625 -3.429688 21.988281 -3.09375 24.25 -3.09375 C 27.957031 -3.09375 30.890625 -3.96875 33.046875 -5.71875 C 35.210938 -7.476562 36.296875 -9.863281 36.296875 -12.875 C 36.296875 -14.132812 36.082031 -15.289062 35.65625 -16.34375 C 35.226562 -17.394531 34.507812 -18.410156 33.5 -19.390625 C 32.5 -20.367188 31.15625 -21.332031 29.46875 -22.28125 C 27.789062 -23.238281 25.671875 -24.269531 23.109375 -25.375 C 20.003906 -26.726562 17.394531 -28.03125 15.28125 -29.28125 C 13.175781 -30.539062 11.492188 -31.847656 10.234375 -33.203125 C 8.984375 -34.554688 8.09375 -36 7.5625 -37.53125 C 7.039062 -39.0625 6.78125 -40.804688 6.78125 -42.765625 C 6.78125 -45.078125 7.191406 -47.210938 8.015625 -49.171875 C 8.847656 -51.128906 10.015625 -52.820312 11.515625 -54.25 C 13.023438 -55.675781 14.804688 -56.78125 16.859375 -57.5625 C 18.921875 -58.34375 21.179688 -58.734375 23.640625 -58.734375 C 25.847656 -58.734375 27.90625 -58.378906 29.8125 -57.671875 C 31.71875 -56.972656 33.648438 -55.84375 35.609375 -54.28125 L 37.578125 -57.671875 L 39.3125 -57.671875 L 40.140625 -42.6875 L 37.34375 -42.6875 C 36.144531 -46.8125 34.398438 -49.875 32.109375 -51.875 C 29.828125 -53.882812 27.082031 -54.890625 23.875 -54.890625 C 20.8125 -54.890625 18.375 -54.132812 16.5625 -52.625 C 14.757812 -51.125 13.859375 -49.09375 13.859375 -46.53125 C 13.859375 -45.320312 14.054688 -44.226562 14.453125 -43.25 C 14.859375 -42.28125 15.507812 -41.351562 16.40625 -40.46875 C 17.3125 -39.59375 18.492188 -38.710938 19.953125 -37.828125 C 21.410156 -36.953125 23.21875 -36.039062 25.375 -35.09375 C 29.09375 -33.4375 32.179688 -31.890625 34.640625 -30.453125 C 37.097656 -29.023438 39.050781 -27.59375 40.5 -26.15625 C 41.957031 -24.726562 42.988281 -23.222656 43.59375 -21.640625 C 44.195312 -20.066406 44.5 -18.300781 44.5 -16.34375 C 44.5 -13.832031 43.992188 -11.519531 42.984375 -9.40625 C 41.984375 -7.300781 40.578125 -5.492188 38.765625 -3.984375 C 36.960938 -2.484375 34.804688 -1.316406 32.296875 -0.484375 C 29.785156 0.335938 27.023438 0.75 24.015625 0.75 C 21.160156 0.75 18.585938 0.347656 16.296875 -0.453125 C 14.015625 -1.253906 11.695312 -2.609375 9.34375 -4.515625 L 7.234375 -0.828125 L 5.5 -0.828125 Z M 4.375 -17.6875 "/></g></g></g><g fill="#ffffff" fill-opacity="1"><g transform="translate(373.599033, 356.457387)"><g><path d="M 57.984375 -11.96875 C 57.984375 -10.0625 58.082031 -8.519531 58.28125 -7.34375 C 58.476562 -6.164062 58.863281 -5.257812 59.4375 -4.625 C 60.019531 -4 60.847656 -3.5625 61.921875 -3.3125 C 63.003906 -3.0625 64.425781 -2.910156 66.1875 -2.859375 L 66.1875 0 L 41.796875 0 L 41.796875 -2.859375 C 43.546875 -2.910156 44.957031 -3.0625 46.03125 -3.3125 C 47.113281 -3.5625 47.957031 -3.988281 48.5625 -4.59375 C 49.164062 -5.195312 49.566406 -6.050781 49.765625 -7.15625 C 49.972656 -8.257812 50.078125 -9.6875 50.078125 -11.4375 L 50.078125 -27.78125 L 19.578125 -27.78125 L 19.578125 -11.96875 C 19.578125 -10.0625 19.675781 -8.519531 19.875 -7.34375 C 20.070312 -6.164062 20.457031 -5.257812 21.03125 -4.625 C 21.613281 -4 22.445312 -3.5625 23.53125 -3.3125 C 24.613281 -3.0625 26.03125 -2.910156 27.78125 -2.859375 L 27.78125 0 L 3.390625 0 L 3.390625 -2.859375 C 5.148438 -2.910156 6.566406 -3.0625 7.640625 -3.3125 C 8.722656 -3.5625 9.5625 -3.988281 10.15625 -4.59375 C 10.757812 -5.195312 11.160156 -6.050781 11.359375 -7.15625 C 11.566406 -8.257812 11.671875 -9.6875 11.671875 -11.4375 L 11.671875 -46.53125 C 11.671875 -48.289062 11.582031 -49.707031 11.40625 -50.78125 C 11.226562 -51.863281 10.875 -52.71875 10.34375 -53.34375 C 9.820312 -53.96875 9.054688 -54.394531 8.046875 -54.625 C 7.046875 -54.851562 5.742188 -55.019531 4.140625 -55.125 L 4.140625 -57.984375 L 27.03125 -57.984375 L 27.03125 -55.125 C 25.425781 -55.070312 24.132812 -54.914062 23.15625 -54.65625 C 22.175781 -54.40625 21.421875 -53.953125 20.890625 -53.296875 C 20.367188 -52.648438 20.019531 -51.75 19.84375 -50.59375 C 19.664062 -49.445312 19.578125 -47.914062 19.578125 -46 L 19.578125 -31.546875 L 50.078125 -31.546875 L 50.078125 -46.53125 C 50.078125 -48.289062 49.988281 -49.707031 49.8125 -50.78125 C 49.632812 -51.863281 49.28125 -52.71875 48.75 -53.34375 C 48.226562 -53.96875 47.460938 -54.394531 46.453125 -54.625 C 45.453125 -54.851562 44.148438 -55.019531 42.546875 -55.125 L 42.546875 -57.984375 L 65.4375 -57.984375 L 65.4375 -55.125 C 63.832031 -55.070312 62.539062 -54.914062 61.5625 -54.65625 C 60.582031 -54.40625 59.828125 -53.953125 59.296875 -53.296875 C 58.765625 -52.648438 58.410156 -51.75 58.234375 -50.59375 C 58.066406 -49.445312 57.984375 -47.914062 57.984375 -46 Z M 57.984375 -11.96875 "/></g></g></g><g fill="#ffffff" fill-opacity="1"><g transform="translate(463.570544, 356.457387)"><g><path d="M 19.578125 -31.84375 C 22.285156 -31.84375 24.554688 -32.003906 26.390625 -32.328125 C 28.222656 -32.660156 29.675781 -33.175781 30.75 -33.875 C 31.832031 -34.582031 32.613281 -35.488281 33.09375 -36.59375 C 33.570312 -37.695312 33.8125 -39.003906 33.8125 -40.515625 L 36.4375 -40.515625 L 36.4375 -19.953125 L 33.8125 -19.953125 C 33.8125 -21.460938 33.597656 -22.769531 33.171875 -23.875 C 32.742188 -24.976562 31.988281 -25.890625 30.90625 -26.609375 C 29.832031 -27.335938 28.378906 -27.890625 26.546875 -28.265625 C 24.710938 -28.648438 22.390625 -28.84375 19.578125 -28.84375 L 19.578125 -11.828125 C 19.578125 -10.171875 19.773438 -8.800781 20.171875 -7.71875 C 20.578125 -6.632812 21.269531 -5.753906 22.25 -5.078125 C 23.226562 -4.398438 24.519531 -3.921875 26.125 -3.640625 C 27.726562 -3.367188 29.710938 -3.234375 32.078125 -3.234375 C 34.734375 -3.234375 36.988281 -3.421875 38.84375 -3.796875 C 40.707031 -4.179688 42.265625 -4.820312 43.515625 -5.71875 C 44.773438 -6.625 45.78125 -7.816406 46.53125 -9.296875 C 47.28125 -10.773438 47.910156 -12.617188 48.421875 -14.828125 L 51.28125 -14.828125 L 50.140625 0 L 3.390625 0 L 3.390625 -2.859375 C 5.148438 -2.910156 6.566406 -3.0625 7.640625 -3.3125 C 8.722656 -3.5625 9.5625 -3.988281 10.15625 -4.59375 C 10.757812 -5.195312 11.160156 -6.050781 11.359375 -7.15625 C 11.566406 -8.257812 11.671875 -9.6875 11.671875 -11.4375 L 11.671875 -46.53125 C 11.671875 -48.289062 11.582031 -49.707031 11.40625 -50.78125 C 11.226562 -51.863281 10.875 -52.71875 10.34375 -53.34375 C 9.820312 -53.96875 9.054688 -54.394531 8.046875 -54.625 C 7.046875 -54.851562 5.742188 -55.019531 4.140625 -55.125 L 4.140625 -57.984375 L 47.65625 -57.984375 L 48.34375 -44.71875 L 45.703125 -44.71875 C 45.398438 -46.726562 44.910156 -48.375 44.234375 -49.65625 C 43.554688 -50.9375 42.628906 -51.953125 41.453125 -52.703125 C 40.273438 -53.460938 38.78125 -53.988281 36.96875 -54.28125 C 35.164062 -54.582031 32.984375 -54.734375 30.421875 -54.734375 L 20.859375 -54.734375 C 20.003906 -54.734375 19.578125 -54.304688 19.578125 -53.453125 Z M 19.578125 -31.84375 "/></g></g></g><g fill="#ffffff" fill-opacity="1"><g transform="translate(538.559756, 356.457387)"><g><path d="M 49.546875 -43.453125 C 49.546875 -39.429688 48.335938 -36.085938 45.921875 -33.421875 C 43.515625 -30.765625 39.675781 -28.984375 34.40625 -28.078125 L 51.046875 -8.0625 C 52.398438 -6.40625 53.894531 -5.210938 55.53125 -4.484375 C 57.164062 -3.753906 59.109375 -3.210938 61.359375 -2.859375 L 61.359375 0 L 46.828125 0 L 28.390625 -23.640625 C 27.734375 -24.492188 27.113281 -25.171875 26.53125 -25.671875 C 25.957031 -26.171875 25.359375 -26.554688 24.734375 -26.828125 C 24.109375 -27.109375 23.378906 -27.285156 22.546875 -27.359375 C 21.722656 -27.441406 20.734375 -27.484375 19.578125 -27.484375 L 19.578125 -11.828125 C 19.578125 -9.960938 19.6875 -8.441406 19.90625 -7.265625 C 20.132812 -6.085938 20.613281 -5.171875 21.34375 -4.515625 C 22.070312 -3.859375 23.125 -3.414062 24.5 -3.1875 C 25.882812 -2.96875 27.707031 -2.859375 29.96875 -2.859375 L 29.96875 0 L 3.390625 0 L 3.390625 -2.859375 C 5.148438 -2.910156 6.566406 -3.0625 7.640625 -3.3125 C 8.722656 -3.5625 9.5625 -3.988281 10.15625 -4.59375 C 10.757812 -5.195312 11.160156 -6.050781 11.359375 -7.15625 C 11.566406 -8.257812 11.671875 -9.6875 11.671875 -11.4375 L 11.671875 -46.53125 C 11.671875 -48.289062 11.582031 -49.707031 11.40625 -50.78125 C 11.226562 -51.863281 10.875 -52.71875 10.34375 -53.34375 C 9.820312 -53.96875 9.054688 -54.394531 8.046875 -54.625 C 7.046875 -54.851562 5.742188 -55.019531 4.140625 -55.125 L 4.140625 -57.984375 L 27.78125 -57.984375 C 34.707031 -57.984375 40.066406 -56.703125 43.859375 -54.140625 C 47.648438 -51.578125 49.546875 -48.015625 49.546875 -43.453125 Z M 19.578125 -31.25 L 24.921875 -31.25 C 29.941406 -31.25 33.664062 -32.164062 36.09375 -34 C 38.53125 -35.832031 39.75 -38.851562 39.75 -43.0625 C 39.75 -47.132812 38.78125 -50.046875 36.84375 -51.796875 C 34.914062 -53.554688 31.894531 -54.4375 27.78125 -54.4375 L 20.859375 -54.4375 C 20.003906 -54.4375 19.578125 -54.007812 19.578125 -53.15625 Z M 19.578125 -31.25 "/></g></g></g><g fill="#ffffff" fill-opacity="1"><g transform="translate(618.216836, 356.457387)"><g><path d="M 19.578125 -31.84375 C 22.285156 -31.84375 24.554688 -32.003906 26.390625 -32.328125 C 28.222656 -32.660156 29.675781 -33.175781 30.75 -33.875 C 31.832031 -34.582031 32.613281 -35.488281 33.09375 -36.59375 C 33.570312 -37.695312 33.8125 -39.003906 33.8125 -40.515625 L 36.4375 -40.515625 L 36.4375 -19.953125 L 33.8125 -19.953125 C 33.8125 -21.460938 33.597656 -22.769531 33.171875 -23.875 C 32.742188 -24.976562 31.988281 -25.890625 30.90625 -26.609375 C 29.832031 -27.335938 28.378906 -27.890625 26.546875 -28.265625 C 24.710938 -28.648438 22.390625 -28.84375 19.578125 -28.84375 L 19.578125 -11.828125 C 19.578125 -10.171875 19.773438 -8.800781 20.171875 -7.71875 C 20.578125 -6.632812 21.269531 -5.753906 22.25 -5.078125 C 23.226562 -4.398438 24.519531 -3.921875 26.125 -3.640625 C 27.726562 -3.367188 29.710938 -3.234375 32.078125 -3.234375 C 34.734375 -3.234375 36.988281 -3.421875 38.84375 -3.796875 C 40.707031 -4.179688 42.265625 -4.820312 43.515625 -5.71875 C 44.773438 -6.625 45.78125 -7.816406 46.53125 -9.296875 C 47.28125 -10.773438 47.910156 -12.617188 48.421875 -14.828125 L 51.28125 -14.828125 L 50.140625 0 L 3.390625 0 L 3.390625 -2.859375 C 5.148438 -2.910156 6.566406 -3.0625 7.640625 -3.3125 C 8.722656 -3.5625 9.5625 -3.988281 10.15625 -4.59375 C 10.757812 -5.195312 11.160156 -6.050781 11.359375 -7.15625 C 11.566406 -8.257812 11.671875 -9.6875 11.671875 -11.4375 L 11.671875 -46.53125 C 11.671875 -48.289062 11.582031 -49.707031 11.40625 -50.78125 C 11.226562 -51.863281 10.875 -52.71875 10.34375 -53.34375 C 9.820312 -53.96875 9.054688 -54.394531 8.046875 -54.625 C 7.046875 -54.851562 5.742188 -55.019531 4.140625 -55.125 L 4.140625 -57.984375 L 47.65625 -57.984375 L 48.34375 -44.71875 L 45.703125 -44.71875 C 45.398438 -46.726562 44.910156 -48.375 44.234375 -49.65625 C 43.554688 -50.9375 42.628906 -51.953125 41.453125 -52.703125 C 40.273438 -53.460938 38.78125 -53.988281 36.96875 -54.28125 C 35.164062 -54.582031 32.984375 -54.734375 30.421875 -54.734375 L 20.859375 -54.734375 C 20.003906 -54.734375 19.578125 -54.304688 19.578125 -53.453125 Z M 19.578125 -31.84375 "/></g></g></g></svg>