<svg xmlns="http://www.w3.org/2000/svg" xmlns:xlink="http://www.w3.org/1999/xlink" width="1013" zoomAndPan="magnify" viewBox="0 0 759.75 111.749996" height="149" preserveAspectRatio="xMidYMid meet" version="1.0"><defs><g/><clipPath id="2b92b776c9"><path d="M 134.707031 95.582031 L 300.59375 95.582031 L 300.59375 97.519531 L 134.707031 97.519531 Z M 134.707031 95.582031 " clip-rule="nonzero"/></clipPath><clipPath id="842caf82c5"><path d="M 441.539062 95.582031 L 607.429688 95.582031 L 607.429688 97.519531 L 441.539062 97.519531 Z M 441.539062 95.582031 " clip-rule="nonzero"/></clipPath></defs><g fill="#ffffff" fill-opacity="1"><g transform="translate(135.546104, 72.086215)"><g><path d="M 49 -36.09375 L 46.453125 -36.09375 C 46.328125 -37.882812 46.035156 -39.378906 45.578125 -40.578125 C 45.117188 -41.785156 44.460938 -42.734375 43.609375 -43.421875 C 42.753906 -44.109375 41.679688 -44.597656 40.390625 -44.890625 C 39.109375 -45.179688 37.570312 -45.328125 35.78125 -45.328125 C 34.25 -45.328125 33.015625 -45.296875 32.078125 -45.234375 C 31.140625 -45.171875 30.421875 -45.054688 29.921875 -44.890625 C 29.421875 -44.722656 29.097656 -44.523438 28.953125 -44.296875 C 28.804688 -44.066406 28.734375 -43.765625 28.734375 -43.390625 L 28.734375 -10.03125 C 28.734375 -8.707031 28.828125 -7.566406 29.015625 -6.609375 C 29.203125 -5.648438 29.578125 -4.867188 30.140625 -4.265625 C 30.703125 -3.660156 31.515625 -3.203125 32.578125 -2.890625 C 33.640625 -2.585938 35.039062 -2.414062 36.78125 -2.375 L 36.78125 0 L 13.21875 0 L 13.21875 -2.375 C 14.957031 -2.414062 16.367188 -2.585938 17.453125 -2.890625 C 18.535156 -3.203125 19.359375 -3.660156 19.921875 -4.265625 C 20.484375 -4.867188 20.859375 -5.648438 21.046875 -6.609375 C 21.234375 -7.566406 21.328125 -8.707031 21.328125 -10.03125 L 21.328125 -43.390625 C 21.328125 -43.765625 21.253906 -44.066406 21.109375 -44.296875 C 20.960938 -44.523438 20.671875 -44.722656 20.234375 -44.890625 C 19.796875 -45.054688 19.179688 -45.171875 18.390625 -45.234375 C 17.597656 -45.296875 16.539062 -45.328125 15.21875 -45.328125 C 13.59375 -45.328125 12.082031 -45.265625 10.6875 -45.140625 C 9.300781 -45.015625 8.097656 -44.648438 7.078125 -44.046875 C 6.054688 -43.441406 5.234375 -42.515625 4.609375 -41.265625 C 3.984375 -40.023438 3.648438 -38.300781 3.609375 -36.09375 L 1.3125 -36.09375 L 1.3125 -48 L 48.375 -48 Z M 49 -36.09375 "/></g></g></g><g fill="#ffffff" fill-opacity="1"><g transform="translate(202.442511, 72.086215)"><g><path d="M 41.015625 -35.96875 C 41.015625 -32.644531 40.015625 -29.878906 38.015625 -27.671875 C 36.023438 -25.472656 32.847656 -24 28.484375 -23.25 L 42.265625 -6.671875 C 43.390625 -5.296875 44.625 -4.304688 45.96875 -3.703125 C 47.320312 -3.109375 48.9375 -2.664062 50.8125 -2.375 L 50.8125 0 L 38.78125 0 L 23.5 -19.578125 C 22.957031 -20.285156 22.445312 -20.84375 21.96875 -21.25 C 21.5 -21.664062 21.003906 -21.988281 20.484375 -22.21875 C 19.960938 -22.445312 19.359375 -22.59375 18.671875 -22.65625 C 17.984375 -22.71875 17.160156 -22.75 16.203125 -22.75 L 16.203125 -9.78125 C 16.203125 -8.25 16.296875 -6.992188 16.484375 -6.015625 C 16.671875 -5.035156 17.066406 -4.273438 17.671875 -3.734375 C 18.273438 -3.203125 19.144531 -2.84375 20.28125 -2.65625 C 21.425781 -2.46875 22.9375 -2.375 24.8125 -2.375 L 24.8125 0 L 2.8125 0 L 2.8125 -2.375 C 4.257812 -2.414062 5.429688 -2.539062 6.328125 -2.75 C 7.222656 -2.957031 7.921875 -3.304688 8.421875 -3.796875 C 8.921875 -4.296875 9.25 -5.003906 9.40625 -5.921875 C 9.570312 -6.835938 9.65625 -8.019531 9.65625 -9.46875 L 9.65625 -38.53125 C 9.65625 -39.976562 9.582031 -41.148438 9.4375 -42.046875 C 9.300781 -42.941406 9.015625 -43.648438 8.578125 -44.171875 C 8.140625 -44.691406 7.503906 -45.046875 6.671875 -45.234375 C 5.835938 -45.421875 4.753906 -45.554688 3.421875 -45.640625 L 3.421875 -48 L 23 -48 C 28.738281 -48 33.175781 -46.9375 36.3125 -44.8125 C 39.445312 -42.695312 41.015625 -39.75 41.015625 -35.96875 Z M 16.203125 -25.875 L 20.640625 -25.875 C 24.796875 -25.875 27.878906 -26.628906 29.890625 -28.140625 C 31.910156 -29.660156 32.921875 -32.164062 32.921875 -35.65625 C 32.921875 -39.019531 32.117188 -41.429688 30.515625 -42.890625 C 28.910156 -44.347656 26.40625 -45.078125 23 -45.078125 L 17.265625 -45.078125 C 16.554688 -45.078125 16.203125 -44.722656 16.203125 -44.015625 Z M 16.203125 -25.875 "/></g></g></g><g fill="#ffffff" fill-opacity="1"><g transform="translate(268.403778, 72.086215)"><g><path d="M 29.484375 -48.625 C 33.140625 -48.625 36.546875 -47.976562 39.703125 -46.6875 C 42.867188 -45.40625 45.613281 -43.640625 47.9375 -41.390625 C 50.269531 -39.148438 52.097656 -36.507812 53.421875 -33.46875 C 54.753906 -30.4375 55.421875 -27.15625 55.421875 -23.625 C 55.421875 -20.257812 54.742188 -17.097656 53.390625 -14.140625 C 52.046875 -11.191406 50.207031 -8.625 47.875 -6.4375 C 45.550781 -4.257812 42.804688 -2.535156 39.640625 -1.265625 C 36.484375 -0.00390625 33.097656 0.625 29.484375 0.625 C 25.867188 0.625 22.484375 -0.00390625 19.328125 -1.265625 C 16.171875 -2.535156 13.425781 -4.257812 11.09375 -6.4375 C 8.769531 -8.625 6.929688 -11.191406 5.578125 -14.140625 C 4.222656 -17.097656 3.546875 -20.257812 3.546875 -23.625 C 3.546875 -27.15625 4.210938 -30.4375 5.546875 -33.46875 C 6.878906 -36.507812 8.707031 -39.148438 11.03125 -41.390625 C 13.363281 -43.640625 16.109375 -45.40625 19.265625 -46.6875 C 22.421875 -47.976562 25.828125 -48.625 29.484375 -48.625 Z M 29.484375 -2.8125 C 32.234375 -2.8125 34.695312 -3.285156 36.875 -4.234375 C 39.0625 -5.191406 40.929688 -6.5625 42.484375 -8.34375 C 44.046875 -10.132812 45.238281 -12.304688 46.0625 -14.859375 C 46.894531 -17.421875 47.3125 -20.28125 47.3125 -23.4375 C 47.3125 -26.757812 46.894531 -29.757812 46.0625 -32.4375 C 45.238281 -35.125 44.054688 -37.410156 42.515625 -39.296875 C 40.984375 -41.191406 39.113281 -42.648438 36.90625 -43.671875 C 34.707031 -44.691406 32.234375 -45.203125 29.484375 -45.203125 C 26.742188 -45.203125 24.269531 -44.691406 22.0625 -43.671875 C 19.863281 -42.648438 17.992188 -41.191406 16.453125 -39.296875 C 14.921875 -37.410156 13.738281 -35.125 12.90625 -32.4375 C 12.070312 -29.757812 11.65625 -26.757812 11.65625 -23.4375 C 11.65625 -20.28125 12.070312 -17.421875 12.90625 -14.859375 C 13.738281 -12.304688 14.921875 -10.132812 16.453125 -8.34375 C 17.992188 -6.5625 19.863281 -5.191406 22.0625 -4.234375 C 24.269531 -3.285156 26.742188 -2.8125 29.484375 -2.8125 Z M 29.484375 -2.8125 "/></g></g></g><g fill="#ffffff" fill-opacity="1"><g transform="translate(344.215287, 72.086215)"><g><path d="M 41.015625 -35.96875 C 41.015625 -33.769531 40.660156 -31.796875 39.953125 -30.046875 C 39.253906 -28.304688 38.144531 -26.832031 36.625 -25.625 C 35.101562 -24.414062 33.128906 -23.476562 30.703125 -22.8125 C 28.273438 -22.15625 25.316406 -21.828125 21.828125 -21.828125 L 16.203125 -21.828125 L 16.203125 -9.78125 C 16.203125 -8.25 16.296875 -6.992188 16.484375 -6.015625 C 16.671875 -5.035156 17.066406 -4.273438 17.671875 -3.734375 C 18.273438 -3.203125 19.144531 -2.84375 20.28125 -2.65625 C 21.425781 -2.46875 22.9375 -2.375 24.8125 -2.375 L 24.8125 0 L 2.8125 0 L 2.8125 -2.375 C 4.257812 -2.414062 5.429688 -2.539062 6.328125 -2.75 C 7.222656 -2.957031 7.921875 -3.304688 8.421875 -3.796875 C 8.921875 -4.296875 9.25 -5.003906 9.40625 -5.921875 C 9.570312 -6.835938 9.65625 -8.019531 9.65625 -9.46875 L 9.65625 -38.53125 C 9.65625 -39.976562 9.582031 -41.148438 9.4375 -42.046875 C 9.300781 -42.941406 9.015625 -43.648438 8.578125 -44.171875 C 8.140625 -44.691406 7.503906 -45.046875 6.671875 -45.234375 C 5.835938 -45.421875 4.753906 -45.554688 3.421875 -45.640625 L 3.421875 -48 L 23 -48 C 28.738281 -48 33.175781 -46.9375 36.3125 -44.8125 C 39.445312 -42.695312 41.015625 -39.75 41.015625 -35.96875 Z M 16.203125 -24.9375 L 20.640625 -24.9375 C 24.796875 -24.9375 27.878906 -25.734375 29.890625 -27.328125 C 31.910156 -28.929688 32.921875 -31.5625 32.921875 -35.21875 C 32.921875 -38.757812 32.117188 -41.285156 30.515625 -42.796875 C 28.910156 -44.316406 26.40625 -45.078125 23 -45.078125 L 17.265625 -45.078125 C 16.554688 -45.078125 16.203125 -44.722656 16.203125 -44.015625 Z M 16.203125 -24.9375 "/></g></g></g><g fill="#ffffff" fill-opacity="1"><g transform="translate(403.879888, 72.086215)"><g><path d="M 16.203125 -11.78125 C 16.203125 -9.707031 16.285156 -8.066406 16.453125 -6.859375 C 16.617188 -5.648438 16.941406 -4.710938 17.421875 -4.046875 C 17.898438 -3.390625 18.585938 -2.957031 19.484375 -2.75 C 20.378906 -2.539062 21.550781 -2.414062 23 -2.375 L 23 0 L 2.8125 0 L 2.8125 -2.375 C 4.257812 -2.414062 5.429688 -2.550781 6.328125 -2.78125 C 7.222656 -3.007812 7.921875 -3.429688 8.421875 -4.046875 C 8.921875 -4.671875 9.25 -5.554688 9.40625 -6.703125 C 9.570312 -7.847656 9.65625 -9.394531 9.65625 -11.34375 L 9.65625 -36.65625 C 9.65625 -38.40625 9.582031 -39.847656 9.4375 -40.984375 C 9.300781 -42.128906 9.015625 -43.035156 8.578125 -43.703125 C 8.140625 -44.367188 7.503906 -44.835938 6.671875 -45.109375 C 5.835938 -45.378906 4.753906 -45.554688 3.421875 -45.640625 L 3.421875 -48 L 22.375 -48 L 22.375 -45.640625 C 21.050781 -45.597656 19.984375 -45.429688 19.171875 -45.140625 C 18.359375 -44.847656 17.734375 -44.359375 17.296875 -43.671875 C 16.859375 -42.984375 16.566406 -42.035156 16.421875 -40.828125 C 16.273438 -39.628906 16.203125 -38.09375 16.203125 -36.21875 Z M 16.203125 -11.78125 "/></g></g></g><g fill="#ffffff" fill-opacity="1"><g transform="translate(446.587092, 72.086215)"><g><path d="M 42.953125 -48 L 44.703125 -48 L 45.265625 -33.671875 L 42.953125 -33.671875 C 42.035156 -37.328125 40.269531 -40.191406 37.65625 -42.265625 C 35.039062 -44.347656 31.878906 -45.390625 28.171875 -45.390625 C 25.640625 -45.390625 23.375 -44.890625 21.375 -43.890625 C 19.382812 -42.890625 17.703125 -41.453125 16.328125 -39.578125 C 14.960938 -37.710938 13.914062 -35.425781 13.1875 -32.71875 C 12.457031 -30.019531 12.09375 -26.96875 12.09375 -23.5625 C 12.09375 -16.875 13.484375 -11.734375 16.265625 -8.140625 C 19.054688 -4.546875 23.085938 -2.75 28.359375 -2.75 C 36.390625 -2.75 41.546875 -7.007812 43.828125 -15.53125 L 46.390625 -15.53125 L 46.390625 0 L 44.203125 0 L 42.765625 -4.921875 C 38.398438 -1.222656 33.125 0.625 26.9375 0.625 C 23.40625 0.625 20.210938 0.0625 17.359375 -1.0625 C 14.515625 -2.1875 12.082031 -3.773438 10.0625 -5.828125 C 8.050781 -7.890625 6.492188 -10.394531 5.390625 -13.34375 C 4.285156 -16.289062 3.734375 -19.570312 3.734375 -23.1875 C 3.734375 -26.96875 4.316406 -30.414062 5.484375 -33.53125 C 6.648438 -36.65625 8.28125 -39.335938 10.375 -41.578125 C 12.476562 -43.828125 14.992188 -45.5625 17.921875 -46.78125 C 20.847656 -48.007812 24.082031 -48.625 27.625 -48.625 C 30.113281 -48.625 32.457031 -48.269531 34.65625 -47.5625 C 36.863281 -46.863281 39.253906 -45.722656 41.828125 -44.140625 Z M 42.953125 -48 "/></g></g></g><g fill="#ffffff" fill-opacity="1"><g transform="translate(513.421174, 72.086215)"><g><path d="M 30.421875 -17.390625 L 13.78125 -17.390625 C 13.070312 -15.691406 12.46875 -14.1875 11.96875 -12.875 C 11.46875 -11.5625 11.0625 -10.425781 10.75 -9.46875 C 10.4375 -8.519531 10.21875 -7.710938 10.09375 -7.046875 C 9.96875 -6.378906 9.90625 -5.835938 9.90625 -5.421875 C 9.90625 -4.253906 10.28125 -3.453125 11.03125 -3.015625 C 11.78125 -2.585938 13.03125 -2.375 14.78125 -2.375 L 14.78125 0 L -0.375 0 L -0.375 -2.375 C 0.582031 -2.5 1.40625 -2.660156 2.09375 -2.859375 C 2.78125 -3.066406 3.378906 -3.359375 3.890625 -3.734375 C 4.410156 -4.109375 4.867188 -4.597656 5.265625 -5.203125 C 5.660156 -5.804688 6.046875 -6.546875 6.421875 -7.421875 L 22.625 -48 L 25.3125 -48 L 39.46875 -12.84375 C 40.414062 -10.519531 41.242188 -8.660156 41.953125 -7.265625 C 42.660156 -5.867188 43.347656 -4.816406 44.015625 -4.109375 C 44.679688 -3.410156 45.394531 -2.957031 46.15625 -2.75 C 46.925781 -2.539062 47.851562 -2.4375 48.9375 -2.4375 L 48.9375 0 L 28.609375 0 L 28.609375 -2.4375 C 30.816406 -2.4375 32.332031 -2.640625 33.15625 -3.046875 C 33.988281 -3.460938 34.40625 -4.148438 34.40625 -5.109375 C 34.40625 -5.523438 34.382812 -5.910156 34.34375 -6.265625 C 34.3125 -6.617188 34.242188 -7.003906 34.140625 -7.421875 C 34.035156 -7.835938 33.890625 -8.300781 33.703125 -8.8125 C 33.515625 -9.332031 33.273438 -9.945312 32.984375 -10.65625 Z M 15.03125 -20.515625 L 29.234375 -20.515625 L 22.3125 -38.90625 Z M 15.03125 -20.515625 "/></g></g></g><g fill="#ffffff" fill-opacity="1"><g transform="translate(578.38495, 72.086215)"><g><path d="M 43.078125 0 L 2.8125 0 L 2.8125 -2.375 C 4.257812 -2.414062 5.429688 -2.539062 6.328125 -2.75 C 7.222656 -2.957031 7.921875 -3.304688 8.421875 -3.796875 C 8.921875 -4.296875 9.25 -5.003906 9.40625 -5.921875 C 9.570312 -6.835938 9.65625 -8.019531 9.65625 -9.46875 L 9.65625 -38.53125 C 9.65625 -39.976562 9.582031 -41.148438 9.4375 -42.046875 C 9.300781 -42.941406 9.015625 -43.648438 8.578125 -44.171875 C 8.140625 -44.691406 7.503906 -45.046875 6.671875 -45.234375 C 5.835938 -45.421875 4.753906 -45.554688 3.421875 -45.640625 L 3.421875 -48 L 22.375 -48 L 22.375 -45.640625 C 21.050781 -45.597656 19.984375 -45.472656 19.171875 -45.265625 C 18.359375 -45.054688 17.734375 -44.679688 17.296875 -44.140625 C 16.859375 -43.597656 16.566406 -42.847656 16.421875 -41.890625 C 16.273438 -40.941406 16.203125 -39.675781 16.203125 -38.09375 L 16.203125 -11.21875 C 16.203125 -9.476562 16.378906 -8.054688 16.734375 -6.953125 C 17.085938 -5.847656 17.691406 -4.992188 18.546875 -4.390625 C 19.398438 -3.785156 20.53125 -3.367188 21.9375 -3.140625 C 23.351562 -2.921875 25.144531 -2.8125 27.3125 -2.8125 C 29.675781 -2.8125 31.664062 -2.941406 33.28125 -3.203125 C 34.90625 -3.472656 36.269531 -3.953125 37.375 -4.640625 C 38.476562 -5.328125 39.347656 -6.285156 39.984375 -7.515625 C 40.628906 -8.742188 41.179688 -10.332031 41.640625 -12.28125 L 44.015625 -12.28125 Z M 43.078125 0 "/></g></g></g><g fill="#ffffff" fill-opacity="1"><g transform="translate(320.537892, 103.633147)"><g><path d="M 7.40625 0.171875 C 6.425781 0.171875 5.539062 0.015625 4.75 -0.296875 C 3.96875 -0.609375 3.300781 -1.046875 2.75 -1.609375 C 2.195312 -2.179688 1.769531 -2.878906 1.46875 -3.703125 C 1.175781 -4.523438 1.03125 -5.4375 1.03125 -6.4375 C 1.03125 -7.488281 1.191406 -8.445312 1.515625 -9.3125 C 1.847656 -10.175781 2.300781 -10.921875 2.875 -11.546875 C 3.457031 -12.171875 4.15625 -12.648438 4.96875 -12.984375 C 5.789062 -13.328125 6.691406 -13.5 7.671875 -13.5 C 8.359375 -13.5 9.007812 -13.398438 9.625 -13.203125 C 10.238281 -13.015625 10.898438 -12.695312 11.609375 -12.25 L 11.984375 -13.328125 L 12.59375 -13.328125 L 12.359375 -9.34375 L 11.53125 -9.34375 C 11.53125 -9.914062 11.421875 -10.40625 11.203125 -10.8125 C 10.992188 -11.21875 10.710938 -11.550781 10.359375 -11.8125 C 10.015625 -12.082031 9.617188 -12.28125 9.171875 -12.40625 C 8.734375 -12.539062 8.285156 -12.609375 7.828125 -12.609375 C 7.117188 -12.609375 6.488281 -12.46875 5.9375 -12.1875 C 5.382812 -11.90625 4.914062 -11.503906 4.53125 -10.984375 C 4.15625 -10.472656 3.863281 -9.84375 3.65625 -9.09375 C 3.457031 -8.34375 3.359375 -7.492188 3.359375 -6.546875 C 3.359375 -4.679688 3.742188 -3.25 4.515625 -2.25 C 5.285156 -1.257812 6.40625 -0.765625 7.875 -0.765625 C 8.425781 -0.765625 8.921875 -0.828125 9.359375 -0.953125 C 9.804688 -1.085938 10.179688 -1.265625 10.484375 -1.484375 C 10.785156 -1.710938 11.015625 -1.972656 11.171875 -2.265625 C 11.328125 -2.566406 11.40625 -2.878906 11.40625 -3.203125 C 11.40625 -3.867188 11.269531 -4.320312 11 -4.5625 C 10.726562 -4.800781 10.285156 -4.921875 9.671875 -4.921875 L 9.671875 -5.578125 L 14.59375 -5.578125 L 14.59375 -4.921875 C 14.3125 -4.921875 14.078125 -4.894531 13.890625 -4.84375 C 13.710938 -4.800781 13.566406 -4.71875 13.453125 -4.59375 C 13.347656 -4.476562 13.273438 -4.320312 13.234375 -4.125 C 13.191406 -3.925781 13.171875 -3.675781 13.171875 -3.375 L 13.171875 -1.4375 C 12.953125 -1.4375 12.753906 -1.425781 12.578125 -1.40625 C 12.398438 -1.394531 12.210938 -1.351562 12.015625 -1.28125 C 11.816406 -1.21875 11.597656 -1.128906 11.359375 -1.015625 C 11.128906 -0.910156 10.851562 -0.769531 10.53125 -0.59375 C 10.125 -0.363281 9.65625 -0.175781 9.125 -0.03125 C 8.601562 0.101562 8.03125 0.171875 7.40625 0.171875 Z M 7.40625 0.171875 "/></g></g></g><g fill="#ffffff" fill-opacity="1"><g transform="translate(339.747467, 103.633147)"><g><path d="M 8.453125 -4.828125 L 3.828125 -4.828125 C 3.628906 -4.359375 3.457031 -3.941406 3.3125 -3.578125 C 3.175781 -3.210938 3.066406 -2.894531 2.984375 -2.625 C 2.898438 -2.363281 2.835938 -2.140625 2.796875 -1.953125 C 2.765625 -1.765625 2.75 -1.613281 2.75 -1.5 C 2.75 -1.175781 2.851562 -0.953125 3.0625 -0.828125 C 3.269531 -0.710938 3.617188 -0.65625 4.109375 -0.65625 L 4.109375 0 L -0.109375 0 L -0.109375 -0.65625 C 0.160156 -0.6875 0.390625 -0.734375 0.578125 -0.796875 C 0.765625 -0.859375 0.929688 -0.9375 1.078125 -1.03125 C 1.222656 -1.132812 1.347656 -1.269531 1.453125 -1.4375 C 1.566406 -1.613281 1.675781 -1.820312 1.78125 -2.0625 L 6.28125 -13.328125 L 7.03125 -13.328125 L 10.953125 -3.5625 C 11.222656 -2.914062 11.457031 -2.398438 11.65625 -2.015625 C 11.851562 -1.628906 12.039062 -1.335938 12.21875 -1.140625 C 12.40625 -0.941406 12.601562 -0.8125 12.8125 -0.75 C 13.03125 -0.695312 13.289062 -0.671875 13.59375 -0.671875 L 13.59375 0 L 7.953125 0 L 7.953125 -0.671875 C 8.554688 -0.671875 8.972656 -0.726562 9.203125 -0.84375 C 9.441406 -0.957031 9.5625 -1.148438 9.5625 -1.421875 C 9.5625 -1.535156 9.550781 -1.640625 9.53125 -1.734375 C 9.519531 -1.835938 9.5 -1.945312 9.46875 -2.0625 C 9.445312 -2.175781 9.410156 -2.304688 9.359375 -2.453125 C 9.304688 -2.597656 9.238281 -2.765625 9.15625 -2.953125 Z M 4.171875 -5.703125 L 8.125 -5.703125 L 6.203125 -10.796875 Z M 4.171875 -5.703125 "/></g></g></g><g fill="#ffffff" fill-opacity="1"><g transform="translate(357.261429, 103.633147)"><g><path d="M 9.515625 -3.09375 L 14.015625 -13.328125 L 17.90625 -13.328125 L 17.90625 -12.671875 C 17.53125 -12.660156 17.226562 -12.613281 17 -12.53125 C 16.78125 -12.445312 16.609375 -12.3125 16.484375 -12.125 C 16.367188 -11.9375 16.289062 -11.675781 16.25 -11.34375 C 16.207031 -11.007812 16.1875 -10.582031 16.1875 -10.0625 L 16.1875 -3.265625 C 16.1875 -2.691406 16.207031 -2.238281 16.25 -1.90625 C 16.300781 -1.570312 16.390625 -1.3125 16.515625 -1.125 C 16.648438 -0.9375 16.84375 -0.8125 17.09375 -0.75 C 17.34375 -0.695312 17.671875 -0.664062 18.078125 -0.65625 L 18.078125 0 L 12.46875 0 L 12.46875 -0.65625 C 12.875 -0.664062 13.195312 -0.703125 13.4375 -0.765625 C 13.6875 -0.828125 13.878906 -0.945312 14.015625 -1.125 C 14.160156 -1.300781 14.253906 -1.546875 14.296875 -1.859375 C 14.347656 -2.179688 14.375 -2.613281 14.375 -3.15625 L 14.375 -11.1875 L 14.203125 -11.1875 L 9.140625 0.171875 L 8.765625 0.171875 L 3.796875 -11.1875 L 3.71875 -11.1875 L 3.71875 -3.265625 C 3.71875 -2.691406 3.738281 -2.238281 3.78125 -1.90625 C 3.832031 -1.570312 3.925781 -1.3125 4.0625 -1.125 C 4.195312 -0.9375 4.382812 -0.8125 4.625 -0.75 C 4.875 -0.695312 5.203125 -0.664062 5.609375 -0.65625 L 5.609375 0 L 0.78125 0 L 0.78125 -0.65625 C 1.1875 -0.664062 1.507812 -0.703125 1.75 -0.765625 C 2 -0.828125 2.191406 -0.945312 2.328125 -1.125 C 2.472656 -1.300781 2.566406 -1.546875 2.609375 -1.859375 C 2.660156 -2.179688 2.6875 -2.613281 2.6875 -3.15625 L 2.6875 -10.1875 C 2.6875 -10.664062 2.664062 -11.0625 2.625 -11.375 C 2.582031 -11.695312 2.5 -11.945312 2.375 -12.125 C 2.257812 -12.3125 2.082031 -12.441406 1.84375 -12.515625 C 1.613281 -12.597656 1.316406 -12.648438 0.953125 -12.671875 L 0.953125 -13.328125 L 5.09375 -13.328125 L 9.453125 -3.09375 Z M 9.515625 -3.09375 "/></g></g></g><g fill="#ffffff" fill-opacity="1"><g transform="translate(380.277466, 103.633147)"><g><path d="M 0.65625 0 L 0.65625 -0.65625 C 1.101562 -0.664062 1.460938 -0.695312 1.734375 -0.75 C 2.003906 -0.8125 2.210938 -0.910156 2.359375 -1.046875 C 2.503906 -1.191406 2.601562 -1.390625 2.65625 -1.640625 C 2.707031 -1.898438 2.734375 -2.226562 2.734375 -2.625 L 2.734375 -10.703125 C 2.734375 -11.109375 2.710938 -11.429688 2.671875 -11.671875 C 2.628906 -11.921875 2.546875 -12.117188 2.421875 -12.265625 C 2.304688 -12.410156 2.132812 -12.507812 1.90625 -12.5625 C 1.675781 -12.613281 1.375 -12.648438 1 -12.671875 L 1 -13.328125 L 6.1875 -13.328125 C 7.738281 -13.328125 8.945312 -13.050781 9.8125 -12.5 C 10.675781 -11.945312 11.109375 -11.164062 11.109375 -10.15625 C 11.109375 -9.394531 10.867188 -8.769531 10.390625 -8.28125 C 9.910156 -7.800781 9.15625 -7.40625 8.125 -7.09375 L 8.125 -7.03125 C 8.476562 -7 8.785156 -6.957031 9.046875 -6.90625 C 9.316406 -6.863281 9.554688 -6.804688 9.765625 -6.734375 C 9.972656 -6.671875 10.164062 -6.59375 10.34375 -6.5 C 10.519531 -6.414062 10.695312 -6.316406 10.875 -6.203125 C 11.894531 -5.472656 12.40625 -4.5625 12.40625 -3.46875 C 12.40625 -2.851562 12.234375 -2.28125 11.890625 -1.75 C 11.554688 -1.226562 11.082031 -0.816406 10.46875 -0.515625 C 10.28125 -0.410156 10.082031 -0.328125 9.875 -0.265625 C 9.664062 -0.203125 9.421875 -0.148438 9.140625 -0.109375 C 8.859375 -0.0664062 8.535156 -0.0351562 8.171875 -0.015625 C 7.816406 -0.00390625 7.390625 0 6.890625 0 Z M 6.9375 -0.75 C 9.03125 -0.75 10.078125 -1.640625 10.078125 -3.421875 C 10.078125 -4.734375 9.539062 -5.644531 8.46875 -6.15625 C 8.28125 -6.238281 8.097656 -6.304688 7.921875 -6.359375 C 7.753906 -6.421875 7.554688 -6.46875 7.328125 -6.5 C 7.097656 -6.53125 6.820312 -6.550781 6.5 -6.5625 C 6.1875 -6.570312 5.796875 -6.578125 5.328125 -6.578125 L 4.546875 -6.578125 L 4.546875 -2.71875 C 4.546875 -2.007812 4.726562 -1.503906 5.09375 -1.203125 C 5.46875 -0.898438 6.082031 -0.75 6.9375 -0.75 Z M 5.515625 -7.4375 C 5.878906 -7.4375 6.179688 -7.441406 6.421875 -7.453125 C 6.660156 -7.472656 6.867188 -7.492188 7.046875 -7.515625 C 7.222656 -7.546875 7.375 -7.585938 7.5 -7.640625 C 7.632812 -7.691406 7.769531 -7.765625 7.90625 -7.859375 C 8.28125 -8.085938 8.546875 -8.363281 8.703125 -8.6875 C 8.859375 -9.007812 8.9375 -9.429688 8.9375 -9.953125 C 8.9375 -10.867188 8.710938 -11.523438 8.265625 -11.921875 C 7.816406 -12.316406 7.125 -12.515625 6.1875 -12.515625 L 4.84375 -12.515625 C 4.644531 -12.515625 4.546875 -12.414062 4.546875 -12.21875 L 4.546875 -7.4375 Z M 5.515625 -7.4375 "/></g></g></g><g fill="#ffffff" fill-opacity="1"><g transform="translate(397.704922, 103.633147)"><g><path d="M 4.5 -3.265625 C 4.5 -2.691406 4.519531 -2.238281 4.5625 -1.90625 C 4.613281 -1.570312 4.703125 -1.3125 4.828125 -1.125 C 4.960938 -0.9375 5.15625 -0.8125 5.40625 -0.75 C 5.65625 -0.695312 5.984375 -0.664062 6.390625 -0.65625 L 6.390625 0 L 0.78125 0 L 0.78125 -0.65625 C 1.1875 -0.664062 1.507812 -0.703125 1.75 -0.765625 C 2 -0.828125 2.191406 -0.945312 2.328125 -1.125 C 2.472656 -1.300781 2.566406 -1.546875 2.609375 -1.859375 C 2.660156 -2.179688 2.6875 -2.613281 2.6875 -3.15625 L 2.6875 -10.1875 C 2.6875 -10.664062 2.664062 -11.0625 2.625 -11.375 C 2.582031 -11.695312 2.5 -11.945312 2.375 -12.125 C 2.257812 -12.3125 2.082031 -12.441406 1.84375 -12.515625 C 1.613281 -12.597656 1.316406 -12.648438 0.953125 -12.671875 L 0.953125 -13.328125 L 6.21875 -13.328125 L 6.21875 -12.671875 C 5.84375 -12.660156 5.539062 -12.613281 5.3125 -12.53125 C 5.09375 -12.445312 4.921875 -12.3125 4.796875 -12.125 C 4.679688 -11.9375 4.601562 -11.675781 4.5625 -11.34375 C 4.519531 -11.007812 4.5 -10.582031 4.5 -10.0625 Z M 4.5 -3.265625 "/></g></g></g><g fill="#ffffff" fill-opacity="1"><g transform="translate(409.042038, 103.633147)"><g><path d="M 13.609375 -10.03125 L 12.890625 -10.03125 C 12.859375 -10.519531 12.78125 -10.929688 12.65625 -11.265625 C 12.53125 -11.597656 12.347656 -11.859375 12.109375 -12.046875 C 11.867188 -12.242188 11.570312 -12.382812 11.21875 -12.46875 C 10.863281 -12.550781 10.4375 -12.59375 9.9375 -12.59375 C 9.507812 -12.59375 9.164062 -12.582031 8.90625 -12.5625 C 8.644531 -12.539062 8.445312 -12.503906 8.3125 -12.453125 C 8.175781 -12.410156 8.085938 -12.359375 8.046875 -12.296875 C 8.003906 -12.234375 7.984375 -12.148438 7.984375 -12.046875 L 7.984375 -2.78125 C 7.984375 -2.414062 8.007812 -2.097656 8.0625 -1.828125 C 8.113281 -1.566406 8.21875 -1.351562 8.375 -1.1875 C 8.53125 -1.019531 8.753906 -0.890625 9.046875 -0.796875 C 9.335938 -0.710938 9.726562 -0.664062 10.21875 -0.65625 L 10.21875 0 L 3.671875 0 L 3.671875 -0.65625 C 4.148438 -0.664062 4.539062 -0.710938 4.84375 -0.796875 C 5.144531 -0.890625 5.375 -1.019531 5.53125 -1.1875 C 5.6875 -1.351562 5.789062 -1.566406 5.84375 -1.828125 C 5.894531 -2.097656 5.921875 -2.414062 5.921875 -2.78125 L 5.921875 -12.046875 C 5.921875 -12.148438 5.898438 -12.234375 5.859375 -12.296875 C 5.816406 -12.359375 5.734375 -12.410156 5.609375 -12.453125 C 5.492188 -12.503906 5.328125 -12.539062 5.109375 -12.5625 C 4.890625 -12.582031 4.59375 -12.59375 4.21875 -12.59375 C 3.769531 -12.59375 3.351562 -12.570312 2.96875 -12.53125 C 2.582031 -12.5 2.25 -12.398438 1.96875 -12.234375 C 1.6875 -12.066406 1.457031 -11.804688 1.28125 -11.453125 C 1.101562 -11.109375 1.007812 -10.632812 1 -10.03125 L 0.359375 -10.03125 L 0.359375 -13.328125 L 13.4375 -13.328125 Z M 13.609375 -10.03125 "/></g></g></g><g fill="#ffffff" fill-opacity="1"><g transform="translate(427.099269, 103.633147)"><g/></g></g><g clip-path="url(#2b92b776c9)"><path fill="#ffffff" d="M 134.707031 95.582031 L 300.59375 95.582031 L 300.59375 97.519531 L 134.707031 97.519531 Z M 134.707031 95.582031 " fill-opacity="1" fill-rule="nonzero"/></g><g clip-path="url(#842caf82c5)"><path fill="#ffffff" d="M 441.539062 95.582031 L 607.429688 95.582031 L 607.429688 97.519531 L 441.539062 97.519531 Z M 441.539062 95.582031 " fill-opacity="1" fill-rule="nonzero"/></g></svg>